<svg width="13" height="13" viewBox="0 0 13 13" fill="none" xmlns="http://www.w3.org/2000/svg">
<g clip-path="url(#clip0)">
<path d="M7.691 6.50985L12.7529 1.44776C13.0824 1.11849 13.0824 0.586107 12.7529 0.256839C12.4237 -0.0724294 11.8913 -0.0724294 11.562 0.256839L6.49993 5.31894L1.43799 0.256839C1.10856 -0.0724294 0.576335 -0.0724294 0.247067 0.256839C-0.0823556 0.586107 -0.0823556 1.11849 0.247067 1.44776L5.30901 6.50985L0.247067 11.5719C-0.0823556 11.9012 -0.0823556 12.4336 0.247067 12.7629C0.411161 12.9271 0.626921 13.0096 0.842526 13.0096C1.05813 13.0096 1.27374 12.9271 1.43799 12.7629L6.49993 7.70077L11.562 12.7629C11.7263 12.9271 11.9419 13.0096 12.1575 13.0096C12.3731 13.0096 12.5887 12.9271 12.7529 12.7629C13.0824 12.4336 13.0824 11.9012 12.7529 11.5719L7.691 6.50985Z" fill="#F49100"/>
</g>
<defs>
<clipPath id="clip0">
<rect width="13" height="13" fill="white"/>
</clipPath>
</defs>
</svg>
