<?xml version="1.0"?>
<svg
  xmlns="http://www.w3.org/2000/svg"
  xmlns:xlink="http://www.w3.org/1999/xlink"
  xmlns:svgjs="http://svgjs.com/svgjs"
  version="1.1"
  width="512"
  height="512"
  x="0"
  y="0"
  viewBox="0 0 520 520"
  style="enable-background:new 0 0 512 512"
  xml:space="preserve"
  class="">
  <g>
    <g xmlns="http://www.w3.org/2000/svg"><path
      d="m460.821 112.251-103.334-107.639c-2.828-2.946-6.736-4.612-10.82-4.612h-180.834c-22.515 0-40.833 18.317-40.833 40.833v27.223 343.056c0 22.516 18.318 40.833 40.833 40.833h229.167 29.167c22.516 0 40.833-18.317 40.833-40.833v-288.473c0-3.872-1.498-7.595-4.179-10.388zm-62.488 51.222h-77.5c-8.284 0-15-6.716-15-15v-77.5c0-8.284 6.716-15 15-15s15 6.716 15 15v62.5h62.5c8.284 0 15 6.716 15 15s-6.715 15-15 15z"
      fill="#ffffff"
      data-original="#000000"
      style=""
      class=""/><path
      d="m95 411.111v-343.034c-22.131.447-40 18.576-40 40.812v370.277c0 22.516 18.318 40.834 40.833 40.834h258.333c21.581 0 39.294-16.832 40.728-38.056h-229.061c-39.057 0-70.833-31.775-70.833-70.833z"
      fill="#ffffff"
      data-original="#000000"
      style=""
      class=""/></g>
  </g>
</svg>
