<svg width="35" height="35" viewBox="0 0 35 35" fill="none" xmlns="http://www.w3.org/2000/svg">
  <g clip-path="url(#clip0)">
    <path
      d="M17.5 23.3333C17.2011 23.3333 16.9152 23.2108 16.7096 22.995L9.05334 14.9742C8.3898 14.28 8.88272 13.125 9.84376 13.125H13.8542V4.73958C13.8542 3.73479 14.6723 2.91666 15.6771 2.91666H19.3229C20.3277 2.91666 21.1458 3.73479 21.1458 4.73958V13.125H25.1563C26.1173 13.125 26.6102 14.28 25.9467 14.9742L18.2904 22.995C18.0848 23.2108 17.799 23.3333 17.5 23.3333Z"
      fill="white"/>
    <path d="M32.4479 32.0833H2.55208C1.14479 32.0833 0 30.9385 0 29.5312V28.8021C0 27.3948 1.14479 26.25 2.55208 26.25H32.4479C33.8552 26.25 35 27.3948 35 28.8021V29.5312C35 30.9385 33.8552 32.0833 32.4479 32.0833Z" fill="white"/>
  </g>
  <defs>
    <clipPath id="clip0">
      <rect width="35" height="35" fill="white"/>
    </clipPath>
  </defs>
</svg>
