<svg width="32" height="32" viewBox="0 0 32 32" fill="none" xmlns="http://www.w3.org/2000/svg">
<g clip-path="url(#clip0)">
<path d="M3.89177 3.93558C6.40547 1.42188 9.74756 0.0375366 13.3023 0.0375366C16.8571 0.0375366 20.1993 1.42188 22.7129 3.93558C27.0033 8.226 27.7459 14.7409 24.9415 19.802L30.9454 25.806C32.3515 27.2121 32.3515 29.5001 30.9454 30.9062C30.2643 31.5874 29.3587 31.9624 28.3954 31.9624C27.4321 31.9624 26.5265 31.5874 25.8454 30.9062L19.8681 24.9289C17.8886 26.0551 15.6415 26.6546 13.3023 26.6546C9.74745 26.6546 6.40536 25.2704 3.89177 22.7567C-1.29722 17.5676 -1.29722 9.12457 3.89177 3.93558ZM6.24755 20.4008C8.13199 22.2851 10.6374 23.3229 13.3022 23.3229C15.9671 23.3229 18.4725 22.2851 20.3569 20.4008C24.2467 16.5109 24.2467 10.1813 20.3569 6.29147C18.4724 4.40703 15.9671 3.3693 13.3022 3.3693C10.6374 3.3693 8.13188 4.40703 6.24755 6.29147C2.35772 10.1814 2.35772 16.5109 6.24755 20.4008Z" fill="white"/>
</g>
<defs>
<clipPath id="clip0">
<rect width="32" height="32" fill="white" transform="matrix(-1 0 0 1 32 0)"/>
</clipPath>
</defs>
</svg>
